<svg class="svg-icon" style="width: 1em;height: 1em;vertical-align: middle;fill: currentColor;overflow: hidden;" viewBox="0 0 1024 1024" version="1.1" xmlns="http://www.w3.org/2000/svg"><path d="M493.4656 99.669333a204.8 204.8 0 0 1 127.488 365.090134 409.9072 409.9072 0 0 1 161.792 95.095466c15.36 14.609067 29.525333 30.378667 42.461867 47.172267a34.133333 34.133333 0 1 1-54.101334 41.642667 345.429333 345.429333 0 0 0-35.464533-39.389867 341.9136 341.9136 0 0 0-236.714667-94.685867c-189.576533 0-343.278933 153.668267-343.278933 343.2448 0 9.864533 0.4096 19.626667 1.2288 29.354667a34.133333 34.133333 0 0 1-68.027733 5.7344c-0.989867-11.605333-1.467733-23.313067-1.467734-35.089067 0-181.930667 118.101333-336.2816 281.770667-390.656A204.8 204.8 0 0 1 493.4656 99.669333z m433.834667 536.234667c12.629333 12.629333 12.629333 33.109333 0 45.738667l-228.693334 228.693333a32.3584 32.3584 0 0 1-42.9056 2.491733l-2.833066-2.525866-114.346667-114.346667a32.324267 32.324267 0 1 1 45.738667-45.738667l91.477333 91.477334 205.824-205.824c12.629333-12.629333 33.109333-12.629333 45.738667 0zM493.4656 166.161067a138.308267 138.308267 0 1 0 0 276.616533 138.308267 138.308267 0 0 0 0-276.616533z" fill="#fff" /></svg>